<svg class="svg-icon" style="width: 1em; height: 1em;vertical-align: middle;fill: currentColor;overflow: hidden;" viewBox="0 0 1024 1024" version="1.1" xmlns="http://www.w3.org/2000/svg"><path d="M130.45 294.402H144.8v-14.35h-14.35v14.35z m0 86.098H144.8v-14.35h-14.35v14.35z m0-57.398H144.8v-14.35h-14.35v14.35z m0 28.698H144.8v-14.35h-14.35v14.35z m0 57.398H144.8v-14.35h-14.35v14.35z m0 28.698H144.8v-14.35h-14.35v14.35z m106.556-244.85h14.35v-14.35h-14.35v14.35z m-29.718-13.318l2.148 14.186a77.344 77.344 0 0 1 11.532-0.866h1.686v-14.35h-1.686a90.856 90.856 0 0 0-13.68 1.03z m-76.758 85.68l14.34 0.592c0.178-4.374 0.738-8.744 1.658-12.982l-14.022-3.046a90.674 90.674 0 0 0-1.976 15.436zM177.88 189.59l6.838 12.616a76.284 76.284 0 0 1 12-5.222l-4.578-13.602a90.978 90.978 0 0 0-14.26 6.208z m87.824-10.894v14.35h14.35v-14.35h-14.35z m-112.146 30.11l10.688 9.576a76.976 76.976 0 0 1 9.542-8.97l-8.894-11.258a91.104 91.104 0 0 0-11.336 10.652z m-16.452 26.288l13.284 5.414a76.236 76.236 0 0 1 5.974-11.654l-12.164-7.618a90.586 90.586 0 0 0-7.094 13.858zM880.106 221.696l-12.2 7.548a75.808 75.808 0 0 1 5.896 11.688l13.322-5.33a89.868 89.868 0 0 0-7.018-13.906z m-0.882 331.498h14.35v-14.35h-14.35v14.35z m12.412-302.688l-14.042 2.958c0.896 4.248 1.43 8.62 1.584 12.998l14.34-0.51a90.88 90.88 0 0 0-1.882-15.446zM859.56 198.492l-8.968 11.206a76.634 76.634 0 0 1 9.496 9.03l10.744-9.516a91.686 91.686 0 0 0-11.272-10.72z m-31.82-1.354a75.994 75.994 0 0 1 11.962 5.29l6.914-12.574a90.1 90.1 0 0 0-14.232-6.294l-4.644 13.578z m-54.572-4.092h14.35v-14.35h-14.35v14.35z m-28.698 0h14.35v-14.35h-14.35v14.35z m57.398-14.35v14.35h1.228c4.004 0 8.02 0.316 11.944 0.934l2.242-14.172c-4.676-0.742-9.38-1.226-14.228-1.112h-1.186z m77.356 317.1h14.35v-14.35h-14.35v14.35z m0-172.192h14.35v-14.35h-14.35v14.35z m0 28.698h14.35v-14.35h-14.35v14.35z m0 28.7h14.35v-14.35h-14.35v14.35z m0-100.446v14.35h14.35v-14.35h-14.35z m0 186.542h14.35v-14.35h-14.35v14.35z m0 57.398h14.35v-14.35h-14.35v14.35z m0-114.796h14.35v-14.35h-14.35v14.35z m0 28.698h14.35v-14.35h-14.35v14.35zM496.56 472.074H136.442c-55.18 0-100.068 44.868-100.068 100.016v322.374l93.514-91.204h311.856v-114.174c0-47.262 38.452-85.714 85.718-85.714h69.164v-31.282c0-55.148-44.888-100.016-100.066-100.016z m85.718 116.948h-54.814c-55.18 0-100.066 44.888-100.066 100.062v99.824H124.05l-73.326 71.516V572.09c0-47.236 38.452-85.666 85.718-85.666H496.56c47.266 0 85.718 38.432 85.718 85.666v16.932z" fill="#4A555F" /><path d="M496.56 503.166H136.442c-38.036 0-68.978 30.92-68.978 68.924v248.622l49.774-48.544h293.416v-83.084c0-64.406 52.4-116.804 116.808-116.804h38.074v-0.19c0-38.004-30.94-68.924-68.976-68.924z" fill="#FFD452" /><path d="M887.576 589.018H527.454c-55.166 0-100.044 44.882-100.044 100.046v131.132c0 55.166 44.878 100.048 100.044 100.048h354.39L987.624 1024V689.064c0-55.164-44.882-100.046-100.048-100.046z m85.7 400.81l-85.564-83.932H527.454c-47.252 0-85.694-38.444-85.694-85.7v-131.132c0-47.254 38.442-85.696 85.694-85.696h360.122c47.256 0 85.7 38.442 85.7 85.696v300.764z" fill="#4A555F" /><path d="M887.576 620.108H527.454c-38.022 0-68.954 30.934-68.954 68.956v131.132c0 38.024 30.932 68.958 68.954 68.958h367.096l61.984 60.8V689.064c0-38.022-30.936-68.956-68.958-68.956z" fill="#71CCE0" /><path d="M449.024 123.274h125.2v125.2h-125.2z" fill="#F58E6F" /><path d="M469.986 81.246h14.35v42.028h-14.35zM504.45 81.246h14.35v42.028h-14.35zM538.908 81.246h14.35v42.028h-14.35zM469.986 248.472h14.35v42.03h-14.35zM504.45 248.472h14.35v42.03h-14.35zM538.908 248.472h14.35v42.03h-14.35zM574.22 144.236h42.03v14.35H574.22zM574.22 178.696h42.03v14.35H574.22zM574.22 213.16h42.03v14.35H574.22zM406.992 144.236h42.03v14.35h-42.03zM406.992 178.696h42.03v14.35h-42.03zM406.992 213.16h42.03v14.35h-42.03z" fill="#4A555F" /><path d="M441.848 116.098v139.55h139.546V116.098h-139.546z m125.198 125.2h-110.848V130.448h110.848v110.85z" fill="#4A555F" /><path d="M512.782 0c-77.072 0-146.998 48.616-174.004 120.978l13.444 5.016c24.924-66.776 89.45-111.644 160.562-111.644s135.632 44.868 160.558 111.644l13.444-5.016C659.774 48.616 589.85 0 512.782 0zM672.556 247.888c-25.846 66.522-88.558 109.508-159.772 109.508-71.214 0-133.932-42.984-159.782-109.51l-13.378 5.198c28.012 72.084 95.98 118.66 173.16 118.66 77.18 0 145.144-46.578 173.15-118.662l-13.378-5.194z" fill="#4A555F" /><path d="M687.446 79.104l-10.584 33.842-36.242-10.02-3.822 13.83 49.61 13.72 14.734-47.088zM342.14 241.756l-15.268 50.696 13.742 4.14 11.252-37.376 38.952 10.426 3.708-13.858zM157.85 537.512c-22.59 0-40.97 18.378-40.97 40.97v69.212h14.35v-69.212c0-14.68 11.944-26.62 26.622-26.62 14.676 0 26.62 11.942 26.62 26.62v69.212h14.35v-69.212c-0.002-22.59-18.384-40.97-40.972-40.97z" fill="#4A555F" /><path d="M124.056 591.014h67.59v14.35H124.056zM558.33 702.996h-45.724v60.802h45.724c16.764 0 30.404-13.638 30.404-30.4 0-16.766-13.64-30.402-30.404-30.402z m0 46.454h-31.376v-32.104h31.376c8.852 0 16.054 7.2 16.054 16.052s-7.202 16.052-16.054 16.052z" fill="#4A555F" /><path d="M557.708 655.3h-45.104v62.046h45.104c17.106 0 31.026-13.918 31.026-31.022 0-17.106-13.92-31.024-31.026-31.024z m0 47.696h-30.754v-33.346h30.754c9.198 0 16.676 7.48 16.676 16.674 0 9.19-7.478 16.672-16.676 16.672zM315.062 570.746h14.35v-14.35h-14.35v14.35z m-28.698 0h14.35v-14.35h-14.35v14.35z m86.096 0h14.35v-14.35h-14.35v14.35z m-114.794 0h14.35v-14.35h-14.35v14.35z m86.096 0h14.35v-14.35h-14.35v14.35z m143.492-14.35v14.35h14.35v-14.35h-14.35z m-28.698 14.35h14.35v-14.35h-14.35v14.35z m-57.398 0h14.35v-14.35h-14.35v14.35z m28.7 0h14.35v-14.35h-14.35v14.35zM257.666 609.28h163.668v14.35h-163.668zM257.666 662.164h146.778v14.35h-146.778zM257.666 715.05h146.778v14.35h-146.778zM724.968 687.224h14.35v-14.35h-14.35v14.35z m-28.698 0h14.35v-14.35h-14.35v14.35z m-28.698 0h14.35v-14.35h-14.35v14.35z m-28.7 0h14.35v-14.35h-14.35v14.35z m172.192 0h14.35v-14.35h-14.35v14.35z m-57.398 0h14.35v-14.35h-14.35v14.35z m86.098 0h14.35v-14.35h-14.35v14.35z m28.698-14.35v14.35h14.35v-14.35h-14.35z m-86.096 14.35h14.35v-14.35h-14.35v14.35zM638.872 725.76h251.6v14.35h-251.6zM638.872 778.642h251.6v14.35h-251.6zM638.872 831.528h251.6v14.35h-251.6z" fill="#4A555F" /></svg>